<?xml version="1.0" encoding="UTF-8" standalone="no"?><svg xmlns="http://www.w3.org/2000/svg" xmlns:xlink="http://www.w3.org/1999/xlink" clip-rule="evenodd" stroke-miterlimit="10" viewBox="0 0 1024 768"><desc>SVG generated by Keynote</desc><defs></defs><g transform="matrix(1.00, 0.00, -0.00, -1.00, 0.0, 768.0)"><path d="M 0.0 768.0 L 1024.0 768.0 L 1024.0 0.0 L 0.0 0.0 Z M 0.0 768.0 " fill="#FEFFFF"></path><path d="M 99.0 806.0 L 951.0 806.0 L 951.0 706.0 L 99.0 706.0 Z M 99.0 806.0 " fill="#FEFFFF"></path><image xlink:href="../../45D36621-484C-4026-80EC-FDBD73C2A2AB/assets/FBEE10D6F5ADFFD41C5417C2FC662ED9.png" width="718.00" height="4096.00" transform="matrix(1.11, 0.00, -0.00, -1.11, 113.0, 986.0)"></image><path d="M 191.0 605.0 L 429.0 605.0 L 429.0 479.0 L 191.0 479.0 Z M 191.1 604.7 " fill="#FEFFFF"></path><path d="M 165.0 742.0 L 812.0 742.0 L 812.0 602.0 L 165.0 602.0 Z M 165.5 742.2 " fill="#FEFFFF"></path><g><clipPath id="clip0x608001aaf1e0"><path d="M 187.0 813.0 L 814.0 813.0 L 814.0 668.0 L 187.0 668.0 Z M 187.0 813.2 "></path></clipPath><g clip-path="url(#clip0x608001aaf1e0)"><image xlink:href="../../45D36621-484C-4026-80EC-FDBD73C2A2AB/assets/F7C3C0FAE74FA707AC69758A8FFC72D7.jpeg" width="2288.00" height="586.00" transform="matrix(0.27, 0.00, -0.00, -0.27, 188.0, 830.0)"></image></g></g><path d="M 109.0 803.0 L 927.0 803.0 L 927.0 679.0 L 109.0 679.0 Z M 109.0 802.5 " fill="#FEFFFF"></path><image xlink:href="../../45D36621-484C-4026-80EC-FDBD73C2A2AB/assets/93163A4C4D6AB99E263912F4F27789C6.png" width="800.00" height="71.00" transform="matrix(1.00, 0.00, -0.00, -1.00, 112.0, 708.0)"></image><image xlink:href="../../BDE1E024-2B05-4ACB-952B-4BE7EC0C03AD/assets/1F66D491096E9D0EE020D5B74C7BF2DD.png" width="3072.00" height="149.00" transform="matrix(0.26, 0.00, -0.00, -0.26, 113.0, 638.0)"></image><g opacity="0.60"><g><clipPath id="clip0x6080010a2580"><path d="M 190.0 599.0 L 288.0 599.0 L 288.0 637.0 L 190.0 637.0 Z M 190.0 599.0 "></path></clipPath><g clip-path="url(#clip0x6080010a2580)"><path d="M 191.0 636.0 L 286.0 636.0 L 286.0 600.0 L 191.0 600.0 Z M 191.1 635.7 " fill="#0264C0"></path></g></g></g></g></svg>